<?xml version="1.0" encoding="UTF-8" standalone="no"?>
<!-- Generator: Adobe Illustrator 22.0.1, SVG Export Plug-In . SVG Version: 6.00 Build 0)  -->

<svg
   version="1.1"
   id="Layer_1"
   x="0px"
   y="0px"
   viewBox="0 0 37.80887 58.545728"
   xml:space="preserve"
   sodipodi:docname="logo.svg"
   inkscape:version="1.1.1 (3bf5ae0d25, 2021-09-20, custom)"
   width="37.808868"
   height="58.545727"
   xmlns:inkscape="http://www.inkscape.org/namespaces/inkscape"
   xmlns:sodipodi="http://sodipodi.sourceforge.net/DTD/sodipodi-0.dtd"
   xmlns="http://www.w3.org/2000/svg"
   xmlns:svg="http://www.w3.org/2000/svg"><path
   id="path8586"
   style="opacity:1;fill:#80d4e7;fill-opacity:1;stroke-width:4.70173;stroke-linecap:round;stroke-linejoin:round"
   inkscape:transform-center-y="8.4001788"
   d="m 18.904434,1.5000001 a 5.1961326,5.1961326 0 0 0 -2.597656,0.695312 L 3.1329506,9.8007811 A 3.2739878,3.2739878 0 0 0 1.8028726,14.019531 L 17.636856,47.976562 a 1.3988597,1.3988597 0 0 0 1.267578,0.806641 z" /><defs
   id="defs87"><inkscape:path-effect
     effect="fillet_chamfer"
     id="path-effect10071"
     is_visible="true"
     lpeversion="1"
     satellites_param="F,0,0,1,0,0,0,1 @ F,0,0,1,0,0,0,1 @ F,0,0,1,0,0,0,1"
     unit="px"
     method="auto"
     mode="F"
     radius="5"
     chamfer_steps="1"
     flexible="false"
     use_knot_distance="true"
     apply_no_radius="true"
     apply_with_radius="true"
     only_selected="false"
     hide_knots="false" /><inkscape:path-effect
     effect="bspline"
     id="path-effect9538"
     is_visible="true"
     lpeversion="1"
     weight="33.333333"
     steps="2"
     helper_size="0"
     apply_no_weight="true"
     apply_with_weight="true"
     only_selected="false" /></defs><sodipodi:namedview
   id="namedview85"
   pagecolor="#ffffff"
   bordercolor="#666666"
   borderopacity="1.0"
   inkscape:pageshadow="2"
   inkscape:pageopacity="0.0"
   inkscape:pagecheckerboard="0"
   showgrid="false"
   showguides="false"
   inkscape:guide-bbox="true"
   inkscape:zoom="2.8284271"
   inkscape:cx="-1.7677669"
   inkscape:cy="12.904699"
   inkscape:window-width="1920"
   inkscape:window-height="1171"
   inkscape:window-x="1920"
   inkscape:window-y="0"
   inkscape:window-maximized="1"
   inkscape:current-layer="Layer_1"
   fit-margin-top="0"
   fit-margin-left="0"
   fit-margin-right="0"
   fit-margin-bottom="0"
   width="36.81175px"
   height="49.2832px"><sodipodi:guide
     position="18.904435,57.850416"
     orientation="-1,0"
     id="guide9664"
     inkscape:label=""
     inkscape:locked="false"
     inkscape:color="rgb(0,0,255)" /><sodipodi:guide
     position="18.904435,57.850416"
     orientation="0.5,0.8660254"
     id="guide9783"
     inkscape:label=""
     inkscape:locked="false"
     inkscape:color="rgb(0,0,255)" /><sodipodi:guide
     position="18.904435,57.850416"
     orientation="-0.5,0.8660254"
     id="guide9785"
     inkscape:label=""
     inkscape:locked="false"
     inkscape:color="rgb(0,0,255)" /><sodipodi:guide
     position="18.904435,7.8504149"
     orientation="0.90630779,-0.42261826"
     id="guide9787"
     inkscape:label=""
     inkscape:locked="false"
     inkscape:color="rgb(0,0,255)" /><sodipodi:guide
     position="18.904435,7.8504149"
     orientation="-0.90630779,-0.42261826"
     id="guide9789"
     inkscape:label=""
     inkscape:locked="false"
     inkscape:color="rgb(0,0,255)" /></sodipodi:namedview>
<style
   type="text/css"
   id="style2">
	.st0{fill:none;}
	.st1{opacity:0.6;fill:#00A9CE;}
	.st2{opacity:0.8;fill:#00A9CE;}
	.st3{opacity:0.5;fill:#00A9CE;}
	.st4{fill:#00A9CE;}
</style>
<polygon
   class="st0"
   points=""
   id="polygon4"
   transform="translate(-31.095566,-9.3046879)" />
<path
   id="path10531"
   style="opacity:1;fill:#00a9ce;fill-opacity:1;stroke-width:4.70173;stroke-linecap:round;stroke-linejoin:round"
   inkscape:transform-center-y="8.4001788"
   d="m 18.904434,1.5000001 a 5.1961326,5.1961326 0 0 1 2.597656,0.695312 l 13.173828,7.605469 a 3.2739878,3.2739878 0 0 1 1.330078,4.2187499 L 20.172012,47.976562 a 1.3988597,1.3988597 0 0 1 -1.267578,0.806641 z" /><path
   id="path10809"
   style="opacity:1;fill:none;stroke:#000000;stroke-width:3;stroke-linecap:round;stroke-linejoin:bevel;stroke-miterlimit:4;stroke-dasharray:none;stroke-opacity:1;paint-order:markers fill stroke"
   inkscape:transform-center-y="8.4001788"
   d="m 18.904434,1.5000001 a 5.1961326,5.1961326 0 0 0 -2.597656,0.695312 L 3.1329505,9.8007811 A 3.2739878,3.2739878 0 0 0 1.8028725,14.019531 L 17.636856,47.976562 a 1.3988597,1.3988597 0 0 0 1.267578,0.806641 1.3988597,1.3988597 0 0 0 1.267578,-0.806641 L 36.005996,14.019531 A 3.2739878,3.2739878 0 0 0 34.675918,9.8007811 L 21.50209,2.1953121 a 5.1961326,5.1961326 0 0 0 -2.597656,-0.695312 z" /><path
   style="opacity:1;fill:none;fill-opacity:1;stroke:#000000;stroke-width:3;stroke-linecap:square;stroke-linejoin:round;stroke-miterlimit:4;stroke-dasharray:none;stroke-opacity:1"
   id="path11037"
   sodipodi:type="arc"
   sodipodi:cx="18.904434"
   sodipodi:cy="48.783203"
   sodipodi:rx="17.191204"
   sodipodi:ry="8.2625237"
   sodipodi:start="5.4977871"
   sodipodi:end="3.9269908"
   sodipodi:arc-type="arc"
   d="M 31.060451,42.940716 A 17.191204,8.2625237 0 0 1 34.787036,51.945134 17.191204,8.2625237 0 0 1 18.904434,57.045727 17.191204,8.2625237 0 0 1 3.0218327,51.945134 17.191204,8.2625237 0 0 1 6.7484172,42.940717"
   sodipodi:open="true" /></svg>
